<svg xmlns="http://www.w3.org/2000/svg" width="32" height="32" fill="#2358ba" class="bi bi-megaphone-fill" viewBox="0 0 16 16">
  <path d="M13 2.5a1.5 1.5 0 0 1 3 0v11a1.5 1.5 0 0 1-3 0v-11zm-1 .724c-2.067.95-4.539 1.481-7 1.656v6.237a25.222 25.222 0 0 1 1.088.085c2.053.204 4.038.668 5.912 1.56V3.224zm-8 7.841V4.934c-.68.027-1.399.043-2.008.053A2.02 2.02 0 0 0 0 7v2c0 1.106.896 1.996 1.994 2.009l.018.003c.484.02 1.094.037 1.982.042z"/>
  <path d="M5 12.5a1.5 1.5 0 0 1-1.5 1.5h-1a1.5 1.5 0 0 1-1.5-1.5v-2h4v2z"/>
</svg>
